<svg xmlns="http://www.w3.org/2000/svg" xmlns:xlink="http://www.w3.org/1999/xlink" viewBox="0 0 500 500"><defs><clipPath id="freepik--clip-path--inject-12"><path d="M235.25,264.5s-35.52,9.59-38.21,10.55-2.3,7.11-2.3,8.45-7.87,41.66-7.87,41.66a52.37,52.37,0,0,0-7.11,5.38c-3.07,2.88-1.92,6.72-1.92,7.68s.19,1.34-.77,2.3-3.07-.76-2.68,5.19-1.73,20,3.64,20.73,8.07.2,15.94-2.49a19.75,19.75,0,0,0,10.94-9v22.66h96.38s9.79-28.61,10.37-47.42,3.07-46.47-.38-51.65-21.7-10.94-37.83-12.86S238.13,263.73,235.25,264.5Z" style="fill:#1F1F1F;stroke:#263238;stroke-linecap:round;stroke-linejoin:round"></path></clipPath><clipPath id="freepik--clip-path-2--inject-12"><path d="M237.74,262.58s-3.26,114.73-1.92,114.73h23.43s.19-83.63,1.72-91.5,5.19-21.89,4.61-25.73-26.68-1.73-26.68-1.73A15.28,15.28,0,0,0,237.74,262.58Z" style="fill:#fff;stroke:#263238;stroke-linecap:round;stroke-linejoin:round"></path></clipPath><clipPath id="freepik--clip-path-3--inject-12"><path d="M260.83,286.76a43.86,43.86,0,0,1-23.75.87c-.88,34.3-2.2,89.68-1.26,89.68h23.43S259.43,298.93,260.83,286.76Z" style="fill:#fff;stroke:#263238;stroke-linecap:round;stroke-linejoin:round"></path></clipPath><clipPath id="freepik--clip-path-4--inject-12"><path d="M280.94,293.2l3.65,20.35,4-22.66,15.55-1.72S304,313.36,304,319.5s2.69,34.18,3.46,44-4.42,13-11.52,13.24-12.87-6.33-15.17-19.58.38-37.44-.77-41.47-6-20.54-6-20.54Z" style="fill:#1F1F1F;stroke:#263238;stroke-linecap:round;stroke-linejoin:round"></path></clipPath></defs><g id="freepik--background-simple--inject-12"><path d="M146.86,98.43s-53.5,38.23-58.93,107.69,34.95,133.74,66.29,186.68,87.07,72.48,134.92,49.1,34.13-70.65,69.6-124.93,53.14-63.36,53.3-128.24S345.6,66.93,268,65.58,146.86,98.43,146.86,98.43Z" style="fill:#1F1F1F"></path><path d="M146.86,98.43s-53.5,38.23-58.93,107.69,34.95,133.74,66.29,186.68,87.07,72.48,134.92,49.1,34.13-70.65,69.6-124.93,53.14-63.36,53.3-128.24S345.6,66.93,268,65.58,146.86,98.43,146.86,98.43Z" style="fill:#fff;opacity:0.7000000000000001"></path></g><g id="freepik--Coffee--inject-12"><polygon points="123.94 377.58 102.63 377.58 99.43 342.25 127.14 342.25 123.94 377.58" style="fill:#1F1F1F;stroke:#263238;stroke-linecap:round;stroke-linejoin:round"></polygon><rect x="98.01" y="340.97" width="30.54" height="3.06" rx="1.46" style="fill:#fff;stroke:#263238;stroke-linecap:round;stroke-linejoin:round"></rect><path d="M100.78,291.65a6.8,6.8,0,0,1,1.87-2.47" style="fill:none;stroke:#263238;stroke-linecap:round;stroke-linejoin:round"></path><path d="M108.16,339.06s6.3-1.05,10.76-8.4-1.83-11-12.07-19.69c-6.37-5.39-7.76-11.5-7.08-16" style="fill:none;stroke:#263238;stroke-linecap:round;stroke-linejoin:round"></path><path d="M121.57,337.86a10.68,10.68,0,0,0,4.7-6.42c1.32-5-.52-10.76-7.87-15.48s-11.29-6-14.7-10.5" style="fill:none;stroke:#263238;stroke-linecap:round;stroke-linejoin:round"></path><path d="M116.3,339.84a13,13,0,0,0,3.36-1" style="fill:none;stroke:#263238;stroke-linecap:round;stroke-linejoin:round"></path></g><g id="freepik--Character--inject-12"><path d="M208.44,283.06c-4.76-5.31-6.7-11.22-5.26-19.33,2.5-14,17.86-29.57,17.86-39.36s6.85-32.59,27.78-33.94,31.55,9.17,36,32.21,4.23,27.07,9.41,37.82c2.13,4.43,4.54,8.9,5.42,13.79,1.75,9.7-8.78,14.44-16.23,17.11-20.92,7.48-47.1,12.42-66.8-1.13A45.58,45.58,0,0,1,208.44,283.06Z" style="fill:#263238;stroke:#263238;stroke-linecap:round;stroke-linejoin:round"></path><path d="M284.24,240.45a17.87,17.87,0,0,0,3.56,1.21" style="fill:none;stroke:#fff;stroke-linecap:round;stroke-miterlimit:10"></path><path d="M255.54,208.65s8.25,19.5,18,25.88c2.19,1.43,4.11,2.57,5.77,3.49" style="fill:none;stroke:#fff;stroke-linecap:round;stroke-miterlimit:10"></path><path d="M242.81,214.66c-4.74,8.19-13.77,21.17-25.91,26.62" style="fill:none;stroke:#fff;stroke-linecap:round;stroke-miterlimit:10"></path><path d="M246.53,207.52s-.58,1.32-1.69,3.45" style="fill:none;stroke:#fff;stroke-linecap:round;stroke-miterlimit:10"></path><path d="M224.4,241.66S209,257,210.9,275" style="fill:none;stroke:#fff;stroke-linecap:round;stroke-miterlimit:10"></path><path d="M228.53,245s-7.13,19.51-4.88,31.89" style="fill:none;stroke:#fff;stroke-linecap:round;stroke-miterlimit:10"></path><path d="M235.25,264.5s-35.52,9.59-38.21,10.55-2.3,7.11-2.3,8.45-7.87,41.66-7.87,41.66a52.37,52.37,0,0,0-7.11,5.38c-3.07,2.88-1.92,6.72-1.92,7.68s.19,1.34-.77,2.3-3.07-.76-2.68,5.19-1.73,20,3.64,20.73,8.07.2,15.94-2.49a19.75,19.75,0,0,0,10.94-9v22.66h96.38s9.79-28.61,10.37-47.42,3.07-46.47-.38-51.65-21.7-10.94-37.83-12.86S238.13,263.73,235.25,264.5Z" style="fill:#1F1F1F"></path><g style="clip-path:url(#freepik--clip-path--inject-12)"><path d="M307.61,275.4c.5.59.71,1.09.28,1.29-1.32.63-7.52,2.63-8.27,5.26s-.44-8-1.88-4.89-3.39,15.42-11.28,40.24c-6.31,19.81-9.73,45.13-7.6,60.28h22.43s9.79-28.61,10.37-47.42,3.07-46.47-.38-51.65A11.92,11.92,0,0,0,307.61,275.4Z" style="opacity:0.24;mix-blend-mode:multiply"></path><path d="M236.59,259.12a8.68,8.68,0,0,0-3.07,3.65c-1.34,2.68-12.67,23.61-13.63,24.57s5.18.77,7.68-.38,7.1-1.15,7.1-1.15l4.42,3.45,13.63,5.38s6.14-4.42,9.21-6.91,4.42-3.46,4.42-3.46a43.5,43.5,0,0,1,7.68,3.46c3.07,1.92,1.92,2.88,3.07,1.92s.58-2.88-1-5.57-6.33-17.47-12.29-23S243.69,253.74,236.59,259.12Z" style="fill:#1F1F1F;stroke:#263238;stroke-linecap:round;stroke-linejoin:round"></path><polygon points="264.43 306.93 290.93 307.12 290.35 314.61 276.72 321.52 264.43 314.8 264.43 306.93" style="fill:#1F1F1F;stroke:#263238;stroke-linecap:round;stroke-linejoin:round"></polygon><polygon points="204.91 304.62 231.41 304.81 230.83 312.3 217.2 319.21 204.91 312.49 204.91 304.62" style="fill:#1F1F1F;stroke:#263238;stroke-linecap:round;stroke-linejoin:round"></polygon><path d="M205.23,362.05s-1.5-56.78-.37-63.18-6.77-25.57-6.4-15.41,3,25.47,3.22,29.28-8.86,1.93-8.11,6.82,6,4.88,7.53,12.41-11.29,7.14-11.29,11.28,4.52,9.77.76,13.16-5.88-1.15-5.88-1.15a19.38,19.38,0,0,1,.74,11.16A61.69,61.69,0,0,0,194,364a19.75,19.75,0,0,0,10.94-9v8.16Z" style="opacity:0.24;mix-blend-mode:multiply"></path></g><path d="M235.25,264.5s-35.52,9.59-38.21,10.55-2.3,7.11-2.3,8.45-7.87,41.66-7.87,41.66a52.37,52.37,0,0,0-7.11,5.38c-3.07,2.88-1.92,6.72-1.92,7.68s.19,1.34-.77,2.3-3.07-.76-2.68,5.19-1.73,20,3.64,20.73,8.07.2,15.94-2.49a19.75,19.75,0,0,0,10.94-9v22.66h96.38s9.79-28.61,10.37-47.42,3.07-46.47-.38-51.65-21.7-10.94-37.83-12.86S238.13,263.73,235.25,264.5Z" style="fill:none;stroke:#263238;stroke-linecap:round;stroke-linejoin:round"></path><path d="M204.91,322.09v33.22s-1.73-21.12-6.33-26.5" style="fill:none;stroke:#263238;stroke-linecap:round;stroke-linejoin:round"></path><path d="M179,340s10.18,3.65,12.29,11.13-.38,12.29-.38,12.29" style="fill:none;stroke:#263238;stroke-linecap:round;stroke-linejoin:round"></path><path d="M166.82,352.59s7.43-3.38,8-4,7.11-.31,9.84,6.65.75,10.3-.61,11.05-8.49,2.83-10.46,2.83S163.34,355.17,166.82,352.59Z" style="fill:#1F1F1F;stroke:#263238;stroke-linecap:round;stroke-linejoin:round"></path><path d="M237.74,262.58s-3.26,114.73-1.92,114.73h23.43s.19-83.63,1.72-91.5,5.19-21.89,4.61-25.73-26.68-1.73-26.68-1.73A15.28,15.28,0,0,0,237.74,262.58Z" style="fill:#fff"></path><g style="clip-path:url(#freepik--clip-path-2--inject-12)"><path d="M237.74,262.58s-3.26,114.73-1.92,114.73h23.43s.19-83.63,1.72-91.5,5.19-21.89,4.61-25.73-26.68-1.73-26.68-1.73A15.28,15.28,0,0,0,237.74,262.58Z" style="fill:#1F1F1F"></path><path d="M237.74,262.58s-3.26,114.73-1.92,114.73h23.43s.19-83.63,1.72-91.5,5.19-21.89,4.61-25.73-26.68-1.73-26.68-1.73A15.28,15.28,0,0,0,237.74,262.58Z" style="fill:#fff;opacity:0.7000000000000001"></path></g><path d="M237.74,262.58s-3.26,114.73-1.92,114.73h23.43s.19-83.63,1.72-91.5,5.19-21.89,4.61-25.73-26.68-1.73-26.68-1.73A15.28,15.28,0,0,0,237.74,262.58Z" style="fill:none;stroke:#263238;stroke-linecap:round;stroke-linejoin:round"></path><path d="M260.83,286.76a43.86,43.86,0,0,1-23.75.87c-.88,34.3-2.2,89.68-1.26,89.68h23.43S259.43,298.93,260.83,286.76Z" style="fill:#fff"></path><g style="clip-path:url(#freepik--clip-path-3--inject-12)"><path d="M259.3,365.65c0-3.14,0-6.69.06-10.5H235.63c0,3.84-.09,7.38-.11,10.5Z" style="fill:#263238"></path><path d="M236,335.15c-.07,3.6-.14,7.11-.2,10.5h23.66c0-3.43.06-6.95.1-10.5Z" style="fill:#263238"></path><path d="M236.41,315.15c-.08,3.49-.16,7-.23,10.5h23.47c.05-3.58.1-7.11.16-10.5Z" style="fill:#263238"></path><path d="M236.89,295.15c-.08,3.37-.17,6.89-.26,10.5H260c.09-3.93.2-7.49.32-10.5Z" style="fill:#263238"></path></g><path d="M260.83,286.76a43.86,43.86,0,0,1-23.75.87c-.88,34.3-2.2,89.68-1.26,89.68h23.43S259.43,298.93,260.83,286.76Z" style="fill:none;stroke:#263238;stroke-linecap:round;stroke-linejoin:round"></path><path d="M248.88,213s-3.46,10.94-18.43,20.74c0,0-1,13.63,3.07,23.8s14.78,18.24,19.39,17.28,13.63-11.33,16.7-18.62,3.08-20.35,3.08-20.35S257.13,225.71,248.88,213Z" style="fill:#fff;stroke:#263238;stroke-linecap:round;stroke-linejoin:round"></path><path d="M247.73,250.1s-.39,6.33.57,6.91,2.69.38,2.88-1.73" style="fill:none;stroke:#263238;stroke-linecap:round;stroke-linejoin:round"></path><path d="M245.81,261s5.95,1.15,9.21-.77" style="fill:none;stroke:#263238;stroke-linecap:round;stroke-linejoin:round"></path><path d="M245.69,231.15S237.63,229,234.17,235" style="fill:none;stroke:#263238;stroke-linecap:round;stroke-linejoin:round"></path><path d="M253.44,235.75s5.59-5.63,13.47-.55" style="fill:none;stroke:#263238;stroke-linecap:round;stroke-linejoin:round"></path><path d="M236.4,243.18s3.65,3.46,9.6,1" style="fill:none;stroke:#263238;stroke-linecap:round;stroke-linejoin:round"></path><path d="M254.61,244s5,2.31,9.21-.38" style="fill:none;stroke:#263238;stroke-linecap:round;stroke-linejoin:round"></path><circle cx="240.17" cy="244.72" r="8.06" style="fill:none;stroke:#263238;stroke-linecap:round;stroke-linejoin:round;stroke-width:0.75px"></circle><circle cx="259.41" cy="244.72" r="8.06" style="fill:none;stroke:#263238;stroke-linecap:round;stroke-linejoin:round;stroke-width:0.75px"></circle><line x1="248.23" y1="244.72" x2="251.34" y2="244.72" style="fill:none;stroke:#263238;stroke-linecap:round;stroke-linejoin:round;stroke-width:0.75px"></line><line x1="267.47" y1="244.72" x2="272.19" y2="244.72" style="fill:none;stroke:#263238;stroke-linecap:round;stroke-linejoin:round;stroke-width:0.75px"></line><line x1="229.95" y1="244.72" x2="232.09" y2="244.72" style="fill:none;stroke:#263238;stroke-linecap:round;stroke-linejoin:round;stroke-width:0.75px"></line><path d="M243.2,245.22s2.05.09.13.8-3.86.36-5.85-1.33C237.48,244.69,241.29,245.19,243.2,245.22Z" style="fill:#263238;stroke:#263238;stroke-linecap:round;stroke-linejoin:round"></path><path d="M257.1,244.74s-2-.18-.23.77,3.78.87,6-.56C262.84,245,259,245,257.1,244.74Z" style="fill:#263238;stroke:#263238;stroke-linecap:round;stroke-linejoin:round"></path><path d="M287.47,311.53l-3.07-31.68s-6.53-1.34-8.83-2.88-5-3.45-5-3.45-1.53,1.34-2.68,0-4.8-4-5.38-6.15,3.46-5,5.95-8.44,5.19-6.72,7.11-6.53S285.74,261,290,267.57s5.95,8.25,6.14,10.56,4,14,4,14l1,19.78Z" style="fill:#fff;stroke:#263238;stroke-linecap:round;stroke-linejoin:round"></path><path d="M270.57,273.52s-3.78-3.73-3.78-4.85" style="fill:none;stroke:#263238;stroke-linecap:round;stroke-linejoin:round"></path><path d="M280.94,293.2l3.65,20.35,4-22.66,15.55-1.72S304,313.36,304,319.5s2.69,34.18,3.46,44-4.42,13-11.52,13.24-12.87-6.33-15.17-19.58.38-37.44-.77-41.47-6-20.54-6-20.54Z" style="fill:#1F1F1F"></path><g style="clip-path:url(#freepik--clip-path-4--inject-12)"><path d="M298.38,376.5c5.79-.86,9.73-4.41,9.06-13-.77-9.79-3.46-37.82-3.46-44s.19-30.33.19-30.33l-2.52.28c-1.45,4.83-9.53,33.18-5.42,53.42,4.52,22.19,8.28,24.44,2.26,33.47Z" style="opacity:0.24;mix-blend-mode:multiply"></path></g><path d="M280.94,293.2l3.65,20.35,4-22.66,15.55-1.72S304,313.36,304,319.5s2.69,34.18,3.46,44-4.42,13-11.52,13.24-12.87-6.33-15.17-19.58.38-37.44-.77-41.47-6-20.54-6-20.54Z" style="fill:none;stroke:#263238;stroke-linecap:round;stroke-linejoin:round"></path><path d="M158.87,372.5s-.46,3.09,2.34,3.79,9.53-1.05,10.09-2.49a2.19,2.19,0,0,0-.44-2.37l-6.14,0S160.09,370,158.87,372.5Z" style="fill:#fff;stroke:#263238;stroke-linecap:round;stroke-linejoin:round"></path><polygon points="131.38 339.18 156.83 356.86 158.73 354.33 133.16 336.5 131.38 339.18" style="fill:#263238;stroke:#263238;stroke-linecap:round;stroke-linejoin:round"></polygon><polygon points="137.29 343.28 139.27 340.76 133.16 336.5 131.38 339.18 137.29 343.28" style="fill:#fff;stroke:#263238;stroke-linecap:round;stroke-linejoin:round"></polygon><path d="M162.86,372.23a17,17,0,0,0,10.71-4.47c4.56-4.44,4.87-7.41-1.29-13.79s-19.63,1.09-20.06,3.91S162.86,372.23,162.86,372.23Z" style="fill:#fff;stroke:#263238;stroke-linecap:round;stroke-linejoin:round"></path><path d="M176.49,360.7s-1.74,3.63-3.39,5-4.27,1.74-5.82-.47-3.14-9.07-4.49-9.21-8.08-2.35-10-5-1.82-4.7,2.41-3.44,15.55,2.73,15.55,2.73,2.68,1.61,4.54,7.26" style="fill:#fff;stroke:#263238;stroke-linecap:round;stroke-linejoin:round"></path><path d="M154.72,369.2c.6.74,2.57,4.09,3.5,4.32s6.64-3.4,8.84-6.17-1.9-6.61-3.07-7.15S154.72,369.2,154.72,369.2Z" style="fill:#fff;stroke:#263238;stroke-linecap:round;stroke-linejoin:round"></path><path d="M151.81,359.2s-5,3-3.81,5.06,5.19,5.19,6.47,4.64,9.9-4.56,9.86-6.75-.18-4.8-4.59-4.44A39.55,39.55,0,0,0,151.81,359.2Z" style="fill:#fff;stroke:#263238;stroke-linecap:round;stroke-linejoin:round"></path><path d="M146.81,350.89s-2.43,4.94-.2,7.08,16,2.09,16.7-.43-4.46-3.06-8.25-4.69S147.34,349.72,146.81,350.89Z" style="fill:#fff;stroke:#263238;stroke-linecap:round;stroke-linejoin:round"></path><path d="M200.21,376.62s-.38-6.53-6.14-8.83-8.84-1.35-21.7,2.11a123.07,123.07,0,0,1-24.77,3.84v2.88Z" style="fill:#fff;stroke:#263238;stroke-linecap:round;stroke-linejoin:round"></path><path d="M200,376.62s.38-6.53,6.14-8.83,8.83-1.35,21.7,2.11a123,123,0,0,0,24.76,3.84v2.88Z" style="fill:#fff;stroke:#263238;stroke-linecap:round;stroke-linejoin:round"></path><rect x="146.26" y="375.47" width="108.48" height="2.11" style="fill:#263238;stroke:#263238;stroke-linecap:round;stroke-linejoin:round"></rect></g><g id="freepik--Device--inject-12"><line x1="83" y1="377.58" x2="431.66" y2="377.58" style="fill:#fff;stroke:#263238;stroke-linecap:round;stroke-linejoin:round"></line><polygon points="427.66 319.6 353.74 319.6 328.59 377.77 402.51 377.77 427.66 319.6" style="fill:#fff;stroke:#263238;stroke-linecap:round;stroke-linejoin:round"></polygon><polygon points="430.54 319.6 356.62 319.6 331.47 377.77 405.39 377.77 430.54 319.6" style="fill:#263238;stroke:#263238;stroke-linecap:round;stroke-linejoin:round"></polygon><path d="M386.92,355c-1.9,3-5.46,4.18-7.95,2.6s-3-5.29-1.08-8.3,5.46-4.17,8-2.6S388.82,352,386.92,355Z" style="fill:#fff;stroke:#1F1F1F;stroke-linecap:round;stroke-linejoin:round"></path><rect x="275.6" y="375.47" width="53.95" height="2.11" style="fill:#fff;stroke:#263238;stroke-linecap:round;stroke-linejoin:round"></rect></g></svg>